<svg xmlns="http://www.w3.org/2000/svg" xmlns:xlink="http://www.w3.org/1999/xlink" width="128" height="128" viewBox="0 0 128 128" fill="none"><path d="M128 64C128 99.3462 99.3462 128 64 128C28.6538 128 0 99.3462 0 64C0 28.6538 28.6538 0 64 0C99.3462 0 128 28.6538 128 64ZM118 64C118 34.1766 93.8234 10 64 10C34.1766 10 10 34.1766 10 64C10 93.8234 34.1766 118 64 118C93.8234 118 118 93.8234 118 64Z" fill-rule="evenodd"  fill="#2BFF80" ></path><path    stroke="rgba(43, 255, 128, 1)" stroke-width="10"    d="M118 64L82.5 64L48 119.5M29.49 105.54L48 9.5M29.49 105.54L69 42L101 42M29.49 105.54L28 109"></path></svg>